<mxfile modified="2025-01-03T16:18:08.197Z" host="Electron" agent="Mozilla/5.0 (Macintosh; Intel Mac OS X 10_15_7) AppleWebKit/537.36 (KHTML, like Gecko) draw.io/24.4.13 Chrome/124.0.6367.207 Electron/30.0.6 Safari/537.36" etag="3lEhlrtAsoIsvVbq-B8Z" version="24.4.13" type="device">
  <diagram id="Ht1M8jgEwFfnCIfOTk4-" name="Page-1">
    <mxGraphModel dx="2843" dy="1976" grid="1" gridSize="10" guides="1" tooltips="1" connect="1" arrows="1" fold="1" page="1" pageScale="1" pageWidth="1169" pageHeight="827" math="0" shadow="0">
      <root>
        <mxCell id="0" />
        <mxCell id="1" parent="0" />
        <mxCell id="1yFu0qovv8hxkMMKjSOr-2" value="" style="shape=card;whiteSpace=wrap;html=1;" vertex="1" parent="1">
          <mxGeometry x="150" y="300" width="80" height="100" as="geometry" />
        </mxCell>
        <mxCell id="1yFu0qovv8hxkMMKjSOr-3" value="" style="shape=card;whiteSpace=wrap;html=1;" vertex="1" parent="1">
          <mxGeometry x="160" y="314" width="80" height="100" as="geometry" />
        </mxCell>
        <mxCell id="1yFu0qovv8hxkMMKjSOr-11" style="edgeStyle=orthogonalEdgeStyle;rounded=0;orthogonalLoop=1;jettySize=auto;html=1;exitX=1;exitY=0.5;exitDx=0;exitDy=0;exitPerimeter=0;entryX=0;entryY=0.5;entryDx=0;entryDy=0;strokeWidth=2;" edge="1" parent="1" source="1yFu0qovv8hxkMMKjSOr-4" target="1yFu0qovv8hxkMMKjSOr-9">
          <mxGeometry relative="1" as="geometry" />
        </mxCell>
        <mxCell id="1yFu0qovv8hxkMMKjSOr-4" value="&lt;font style=&quot;font-size: 12px;&quot;&gt;входни изборажения&lt;/font&gt;" style="shape=card;whiteSpace=wrap;html=1;" vertex="1" parent="1">
          <mxGeometry x="170" y="330" width="80" height="100" as="geometry" />
        </mxCell>
        <mxCell id="1yFu0qovv8hxkMMKjSOr-8" value="&lt;i&gt;Видеокамера&lt;/i&gt;" style="swimlane;whiteSpace=wrap;html=1;rounded=1;shadow=1;glass=0;" vertex="1" parent="1">
          <mxGeometry x="100" y="260" width="200" height="240" as="geometry" />
        </mxCell>
        <mxCell id="1yFu0qovv8hxkMMKjSOr-9" value="&lt;b&gt;&lt;i&gt;&lt;font style=&quot;font-size: 15px;&quot;&gt;Процес на категоризиране на входните изображения&amp;nbsp;&lt;/font&gt;&lt;/i&gt;&lt;/b&gt;" style="rounded=1;whiteSpace=wrap;html=1;shadow=1;" vertex="1" parent="1">
          <mxGeometry x="370" y="265" width="200" height="230" as="geometry" />
        </mxCell>
        <mxCell id="1yFu0qovv8hxkMMKjSOr-12" value="&lt;b&gt;&lt;i&gt;&lt;font style=&quot;font-size: 14px;&quot;&gt;Процес на откриване на точки на интерес в ръцете във входните изображения&amp;nbsp;&amp;nbsp;&lt;/font&gt;&lt;/i&gt;&lt;/b&gt;" style="rounded=1;whiteSpace=wrap;html=1;shadow=1;" vertex="1" parent="1">
          <mxGeometry x="880" y="260" width="200" height="230" as="geometry" />
        </mxCell>
        <mxCell id="1yFu0qovv8hxkMMKjSOr-13" value="&lt;i&gt;локална файлова система&lt;/i&gt;" style="swimlane;whiteSpace=wrap;html=1;rounded=1;shadow=1;glass=0;" vertex="1" parent="1">
          <mxGeometry x="630" y="250" width="200" height="240" as="geometry" />
        </mxCell>
        <mxCell id="1yFu0qovv8hxkMMKjSOr-14" value="" style="shape=card;whiteSpace=wrap;html=1;" vertex="1" parent="1yFu0qovv8hxkMMKjSOr-13">
          <mxGeometry x="50" y="40" width="100" height="120" as="geometry" />
        </mxCell>
        <mxCell id="1yFu0qovv8hxkMMKjSOr-15" value="" style="shape=card;whiteSpace=wrap;html=1;" vertex="1" parent="1yFu0qovv8hxkMMKjSOr-13">
          <mxGeometry x="60" y="54" width="100" height="116" as="geometry" />
        </mxCell>
        <mxCell id="1yFu0qovv8hxkMMKjSOr-16" value="ръчно класифицирани изображения" style="shape=card;whiteSpace=wrap;html=1;" vertex="1" parent="1yFu0qovv8hxkMMKjSOr-13">
          <mxGeometry x="70" y="70" width="100" height="110" as="geometry" />
        </mxCell>
        <mxCell id="1yFu0qovv8hxkMMKjSOr-18" style="edgeStyle=orthogonalEdgeStyle;rounded=0;orthogonalLoop=1;jettySize=auto;html=1;exitX=1;exitY=0.5;exitDx=0;exitDy=0;exitPerimeter=0;entryX=0;entryY=0.5;entryDx=0;entryDy=0;strokeWidth=2;" edge="1" parent="1" source="1yFu0qovv8hxkMMKjSOr-16" target="1yFu0qovv8hxkMMKjSOr-12">
          <mxGeometry relative="1" as="geometry" />
        </mxCell>
        <mxCell id="1yFu0qovv8hxkMMKjSOr-19" value="&lt;font style=&quot;font-size: 14px;&quot;&gt;&lt;b&gt;Инженер&lt;/b&gt;&lt;/font&gt;" style="shape=umlActor;verticalLabelPosition=bottom;verticalAlign=top;html=1;outlineConnect=0;" vertex="1" parent="1">
          <mxGeometry x="-110" y="340" width="30" height="60" as="geometry" />
        </mxCell>
        <mxCell id="1yFu0qovv8hxkMMKjSOr-20" value="" style="shape=flexArrow;endArrow=classic;html=1;rounded=0;" edge="1" parent="1" source="1yFu0qovv8hxkMMKjSOr-19">
          <mxGeometry width="50" height="50" relative="1" as="geometry">
            <mxPoint x="10" y="370" as="sourcePoint" />
            <mxPoint x="80" y="370" as="targetPoint" />
          </mxGeometry>
        </mxCell>
        <mxCell id="1yFu0qovv8hxkMMKjSOr-21" value="&lt;font style=&quot;font-size: 12px;&quot;&gt;&lt;b&gt;&lt;i&gt;ТРЕНИРАНЕ&amp;nbsp;&lt;/i&gt;&lt;/b&gt;&lt;/font&gt;&lt;div style=&quot;font-size: 12px;&quot;&gt;&lt;font style=&quot;font-size: 12px;&quot;&gt;&lt;b&gt;&lt;i&gt;НА&amp;nbsp;&lt;/i&gt;&lt;/b&gt;&lt;/font&gt;&lt;/div&gt;&lt;div style=&quot;font-size: 12px;&quot;&gt;&lt;font style=&quot;font-size: 12px;&quot;&gt;&lt;b&gt;&lt;i&gt;КЛАСИФИКАТОРА&lt;/i&gt;&lt;/b&gt;&lt;/font&gt;&lt;/div&gt;" style="edgeLabel;html=1;align=center;verticalAlign=middle;resizable=0;points=[];" vertex="1" connectable="0" parent="1yFu0qovv8hxkMMKjSOr-20">
          <mxGeometry x="-0.2286" y="4" relative="1" as="geometry">
            <mxPoint x="8" y="4" as="offset" />
          </mxGeometry>
        </mxCell>
        <mxCell id="1yFu0qovv8hxkMMKjSOr-24" style="edgeStyle=orthogonalEdgeStyle;rounded=0;orthogonalLoop=1;jettySize=auto;html=1;entryX=0;entryY=0.75;entryDx=0;entryDy=0;entryPerimeter=0;strokeWidth=2;" edge="1" parent="1" source="1yFu0qovv8hxkMMKjSOr-9" target="1yFu0qovv8hxkMMKjSOr-14">
          <mxGeometry relative="1" as="geometry" />
        </mxCell>
        <mxCell id="1yFu0qovv8hxkMMKjSOr-25" value="&lt;b&gt;&lt;i&gt;&lt;font style=&quot;font-size: 14px;&quot;&gt;Класификатор на жестове&lt;/font&gt;&lt;/i&gt;&lt;/b&gt;&lt;div&gt;&lt;span style=&quot;font-size: 14px;&quot;&gt;&lt;b&gt;&lt;i&gt;Random Forest&lt;/i&gt;&lt;/b&gt;&lt;/span&gt;&lt;/div&gt;" style="rounded=1;whiteSpace=wrap;html=1;shadow=1;" vertex="1" parent="1">
          <mxGeometry x="550" y="-30" width="200" height="230" as="geometry" />
        </mxCell>
        <mxCell id="1yFu0qovv8hxkMMKjSOr-28" value="&lt;i&gt;локална файлова система&lt;/i&gt;" style="swimlane;whiteSpace=wrap;html=1;rounded=1;shadow=1;glass=0;" vertex="1" parent="1">
          <mxGeometry x="880" y="-50" width="200" height="240" as="geometry" />
        </mxCell>
        <mxCell id="1yFu0qovv8hxkMMKjSOr-32" value="&lt;font style=&quot;font-size: 14px;&quot;&gt;обработени данни за трениране&lt;/font&gt;" style="shape=card;whiteSpace=wrap;html=1;" vertex="1" parent="1yFu0qovv8hxkMMKjSOr-28">
          <mxGeometry x="50" y="65" width="100" height="110" as="geometry" />
        </mxCell>
        <mxCell id="1yFu0qovv8hxkMMKjSOr-33" style="edgeStyle=orthogonalEdgeStyle;rounded=0;orthogonalLoop=1;jettySize=auto;html=1;entryX=0.5;entryY=1;entryDx=0;entryDy=0;entryPerimeter=0;strokeWidth=2;" edge="1" parent="1" source="1yFu0qovv8hxkMMKjSOr-12" target="1yFu0qovv8hxkMMKjSOr-32">
          <mxGeometry relative="1" as="geometry" />
        </mxCell>
        <mxCell id="1yFu0qovv8hxkMMKjSOr-34" style="edgeStyle=orthogonalEdgeStyle;rounded=0;orthogonalLoop=1;jettySize=auto;html=1;entryX=0;entryY=0;entryDx=0;entryDy=70;entryPerimeter=0;strokeWidth=2;" edge="1" parent="1" source="1yFu0qovv8hxkMMKjSOr-25" target="1yFu0qovv8hxkMMKjSOr-32">
          <mxGeometry relative="1" as="geometry" />
        </mxCell>
        <mxCell id="1yFu0qovv8hxkMMKjSOr-35" value="&lt;font style=&quot;font-size: 12px;&quot;&gt;&lt;b&gt;&lt;i&gt;ТРЕНИРАНЕ ЧРЕЗ&lt;/i&gt;&lt;/b&gt;&lt;/font&gt;" style="edgeLabel;html=1;align=center;verticalAlign=middle;resizable=0;points=[];" vertex="1" connectable="0" parent="1yFu0qovv8hxkMMKjSOr-34">
          <mxGeometry x="0.1755" y="-2" relative="1" as="geometry">
            <mxPoint x="-39" y="-2" as="offset" />
          </mxGeometry>
        </mxCell>
        <mxCell id="1yFu0qovv8hxkMMKjSOr-36" value="&lt;font style=&quot;font-size: 14px;&quot;&gt;&lt;b&gt;Потребител&lt;/b&gt;&lt;/font&gt;" style="shape=umlActor;verticalLabelPosition=bottom;verticalAlign=top;html=1;outlineConnect=0;" vertex="1" parent="1">
          <mxGeometry x="-110" y="55" width="30" height="60" as="geometry" />
        </mxCell>
        <mxCell id="1yFu0qovv8hxkMMKjSOr-38" value="" style="shape=flexArrow;endArrow=classic;html=1;rounded=0;entryX=0;entryY=0.5;entryDx=0;entryDy=0;" edge="1" parent="1" source="1yFu0qovv8hxkMMKjSOr-36" target="1yFu0qovv8hxkMMKjSOr-44">
          <mxGeometry width="50" height="50" relative="1" as="geometry">
            <mxPoint x="200" y="84.5" as="sourcePoint" />
            <mxPoint x="360" y="84.5" as="targetPoint" />
          </mxGeometry>
        </mxCell>
        <mxCell id="1yFu0qovv8hxkMMKjSOr-39" value="&lt;b style=&quot;&quot;&gt;&lt;i style=&quot;&quot;&gt;&lt;font style=&quot;font-size: 13px;&quot;&gt;ЗАСИЧАНЕ НА ЖЕСТОВЕ В РЕАЛНО ВРЕМЕ&lt;/font&gt;&lt;/i&gt;&lt;/b&gt;" style="edgeLabel;html=1;align=center;verticalAlign=middle;resizable=0;points=[];" vertex="1" connectable="0" parent="1yFu0qovv8hxkMMKjSOr-38">
          <mxGeometry x="-0.2286" y="4" relative="1" as="geometry">
            <mxPoint x="29" y="4" as="offset" />
          </mxGeometry>
        </mxCell>
        <mxCell id="1yFu0qovv8hxkMMKjSOr-46" style="edgeStyle=orthogonalEdgeStyle;rounded=0;orthogonalLoop=1;jettySize=auto;html=1;entryX=0;entryY=0.5;entryDx=0;entryDy=0;strokeWidth=2;" edge="1" parent="1" source="1yFu0qovv8hxkMMKjSOr-44" target="1yFu0qovv8hxkMMKjSOr-25">
          <mxGeometry relative="1" as="geometry" />
        </mxCell>
        <mxCell id="1yFu0qovv8hxkMMKjSOr-47" value="&lt;i&gt;&lt;b&gt;&lt;font style=&quot;font-size: 12px;&quot;&gt;ИЗПОЛЗВА&lt;/font&gt;&lt;/b&gt;&lt;/i&gt;" style="edgeLabel;html=1;align=center;verticalAlign=middle;resizable=0;points=[];" vertex="1" connectable="0" parent="1yFu0qovv8hxkMMKjSOr-46">
          <mxGeometry x="0.1333" y="-2" relative="1" as="geometry">
            <mxPoint x="-11" y="-2" as="offset" />
          </mxGeometry>
        </mxCell>
        <mxCell id="1yFu0qovv8hxkMMKjSOr-44" value="&lt;b&gt;&lt;i&gt;&lt;font style=&quot;font-size: 14px;&quot;&gt;Потребителска част на приложението&lt;/font&gt;&lt;/i&gt;&lt;/b&gt;" style="rounded=1;whiteSpace=wrap;html=1;shadow=1;" vertex="1" parent="1">
          <mxGeometry x="250" y="-30" width="200" height="230" as="geometry" />
        </mxCell>
      </root>
    </mxGraphModel>
  </diagram>
</mxfile>
